<svg xmlns="http://www.w3.org/2000/svg" version="1.1" width="144px" height="144px" style="shape-rendering:geometricPrecision; text-rendering:geometricPrecision; image-rendering:optimizeQuality; fill-rule:evenodd; clip-rule:evenodd" xmlns:xlink="http://www.w3.org/1999/xlink">
<g><path style="opacity:1" fill="#84b551" d="M 71.5,24.5 C 78.6549,23.3448 85.9882,23.1782 93.5,24C 97.1091,24.7013 100.442,25.8679 103.5,27.5C 99.0876,27.0978 94.7543,26.2645 90.5,25C 84.1754,24.5005 77.8421,24.3338 71.5,24.5 Z"/></g>
<g><path style="opacity:1" fill="#66b03b" d="M 71.5,24.5 C 77.8421,24.3338 84.1754,24.5005 90.5,25C 94.7543,26.2645 99.0876,27.0978 103.5,27.5C 103.782,28.7777 104.449,29.7777 105.5,30.5C 102.955,31.8487 100.455,31.5153 98,29.5C 96.4447,30.8475 94.6113,31.5142 92.5,31.5C 82.5692,30.6527 72.5692,30.6527 62.5,31.5C 60.0239,31.7674 59.3572,31.1007 60.5,29.5C 61.6935,28.7281 62.6935,27.7281 63.5,26.5C 65.9052,25.2318 68.5718,24.5651 71.5,24.5 Z"/></g>
<g><path style="opacity:1" fill="#589d56" d="M 63.5,26.5 C 62.6935,27.7281 61.6935,28.7281 60.5,29.5C 58.597,29.7959 56.9303,30.4625 55.5,31.5C 52.9162,32.0483 51.9162,33.715 52.5,36.5C 54.8268,36.3354 56.9935,35.6687 59,34.5C 60.6667,35.1667 62.3333,35.8333 64,36.5C 76.9578,35.1824 89.9578,35.1824 103,36.5C 105.375,36.1822 106.542,34.8489 106.5,32.5C 106.672,31.5084 106.338,30.8417 105.5,30.5C 104.449,29.7777 103.782,28.7777 103.5,27.5C 106.135,28.8109 108.469,30.4776 110.5,32.5C 110.714,34.1439 110.38,35.6439 109.5,37C 92.815,37.7903 76.1483,37.6236 59.5,36.5C 57.0838,36.8747 54.7504,37.5413 52.5,38.5C 49.149,38.012 48.8157,36.8453 51.5,35C 51.2716,34.6012 50.9382,34.4346 50.5,34.5C 50.5,33.8333 50.5,33.1667 50.5,32.5C 54.4496,29.6922 58.783,27.6922 63.5,26.5 Z"/></g>
<g><path style="opacity:1" fill="#5aa24d" d="M 55.5,31.5 C 57.8952,32.7658 60.5619,33.4324 63.5,33.5C 77.8896,33.2184 92.2229,32.8851 106.5,32.5C 106.542,34.8489 105.375,36.1822 103,36.5C 89.9578,35.1824 76.9578,35.1824 64,36.5C 62.3333,35.8333 60.6667,35.1667 59,34.5C 56.9935,35.6687 54.8268,36.3354 52.5,36.5C 51.9162,33.715 52.9162,32.0483 55.5,31.5 Z"/></g>
<g><path style="opacity:1" fill="#60a945" d="M 60.5,29.5 C 59.3572,31.1007 60.0239,31.7674 62.5,31.5C 72.5692,30.6527 82.5692,30.6527 92.5,31.5C 94.6113,31.5142 96.4447,30.8475 98,29.5C 100.455,31.5153 102.955,31.8487 105.5,30.5C 106.338,30.8417 106.672,31.5084 106.5,32.5C 92.2229,32.8851 77.8896,33.2184 63.5,33.5C 60.5619,33.4324 57.8952,32.7658 55.5,31.5C 56.9303,30.4625 58.597,29.7959 60.5,29.5 Z"/></g>
<g><path style="opacity:1" fill="#4f9360" d="M 110.5,32.5 C 111.167,32.5 111.5,32.8333 111.5,33.5C 111.328,35.4918 111.995,37.1585 113.5,38.5C 113.192,39.3081 112.692,39.9747 112,40.5C 90.242,39.5063 68.4087,39.173 46.5,39.5C 46.774,37.0194 48.1073,35.3527 50.5,34.5C 50.9382,34.4346 51.2716,34.6012 51.5,35C 48.8157,36.8453 49.149,38.012 52.5,38.5C 54.7504,37.5413 57.0838,36.8747 59.5,36.5C 76.1483,37.6236 92.815,37.7903 109.5,37C 110.38,35.6439 110.714,34.1439 110.5,32.5 Z"/></g>
<g><path style="opacity:1" fill="#4f8d66" d="M 50.5,32.5 C 50.5,33.1667 50.5,33.8333 50.5,34.5C 48.1073,35.3527 46.774,37.0194 46.5,39.5C 68.4087,39.173 90.242,39.5063 112,40.5C 112.692,39.9747 113.192,39.3081 113.5,38.5C 111.995,37.1585 111.328,35.4918 111.5,33.5C 112.89,34.8993 113.89,36.5659 114.5,38.5C 114.5,39.5 114.5,40.5 114.5,41.5C 99.7174,40.4141 85.2174,40.4141 71,41.5C 62.1481,41.1557 53.4815,40.1557 45,38.5C 44.6174,39.056 44.1174,39.3893 43.5,39.5C 43.5,39.1667 43.5,38.8333 43.5,38.5C 45.6068,36.2733 47.9401,34.2733 50.5,32.5 Z"/></g>
<g><path style="opacity:1" fill="#4a866b" d="M 114.5,38.5 C 115.338,38.8417 115.672,39.5084 115.5,40.5C 115.5,41.1667 115.5,41.8333 115.5,42.5C 106.434,42.5575 97.601,42.8908 89,43.5C 86.5832,42.0015 83.9165,41.3349 81,41.5C 78.1345,41.2999 75.6345,41.9666 73.5,43.5C 63.1939,42.4204 52.8606,41.5871 42.5,41C 43.056,40.6174 43.3893,40.1174 43.5,39.5C 44.1174,39.3893 44.6174,39.056 45,38.5C 53.4815,40.1557 62.1481,41.1557 71,41.5C 85.2174,40.4141 99.7174,40.4141 114.5,41.5C 114.5,40.5 114.5,39.5 114.5,38.5 Z"/></g>
<g><path style="opacity:1" fill="#467e71" d="M 43.5,38.5 C 43.5,38.8333 43.5,39.1667 43.5,39.5C 43.3893,40.1174 43.056,40.6174 42.5,41C 52.8606,41.5871 63.1939,42.4204 73.5,43.5C 73.1583,44.3382 72.4916,44.6716 71.5,44.5C 60.803,43.9082 50.1364,43.9082 39.5,44.5C 39.5,43.8333 39.5,43.1667 39.5,42.5C 40.5,40.8333 41.8333,39.5 43.5,38.5 Z"/></g>
<g><path style="opacity:1" fill="#477b71" d="M 115.5,42.5 C 106.895,44.4711 97.8955,45.1377 88.5,44.5C 83.688,42.1898 78.688,41.8565 73.5,43.5C 75.6345,41.9666 78.1345,41.2999 81,41.5C 83.9165,41.3349 86.5832,42.0015 89,43.5C 97.601,42.8908 106.434,42.5575 115.5,42.5 Z"/></g>
<g><path style="opacity:1" fill="#3f7478" d="M 71.5,44.5 C 69.5248,46.137 67.5248,47.8036 65.5,49.5C 64.3886,48.3403 63.3886,47.007 62.5,45.5C 59.2203,46.1277 55.887,46.461 52.5,46.5C 47.8929,46.6836 43.5595,46.017 39.5,44.5C 50.1364,43.9082 60.803,43.9082 71.5,44.5 Z"/></g>
<g><path style="opacity:1" fill="#3a727b" d="M 115.5,40.5 C 116.407,42.6568 117.073,44.9902 117.5,47.5C 108.79,47.9806 99.957,48.6473 91,49.5C 90.7216,48.5842 90.2216,47.9175 89.5,47.5C 88.8902,46.609 88.5569,45.609 88.5,44.5C 97.8955,45.1377 106.895,44.4711 115.5,42.5C 115.5,41.8333 115.5,41.1667 115.5,40.5 Z"/></g>
<g><path style="opacity:1" fill="#366b7d" d="M 39.5,42.5 C 39.5,43.1667 39.5,43.8333 39.5,44.5C 43.5595,46.017 47.8929,46.6836 52.5,46.5C 55.887,46.461 59.2203,46.1277 62.5,45.5C 63.3886,47.007 64.3886,48.3403 65.5,49.5C 64.5,51.1667 63.1667,52.5 61.5,53.5C 61.5,52.5 61.5,51.5 61.5,50.5C 59.2164,49.896 56.7164,49.896 54,50.5C 50.2767,48.2083 46.61,48.2083 43,50.5C 41.6667,49.8333 40.3333,49.1667 39,48.5C 36.9409,50.0696 34.7742,51.403 32.5,52.5C 34.3535,48.7792 36.6869,45.4459 39.5,42.5 Z"/></g>
<g><path style="opacity:1" fill="#2e6583" d="M 89.5,47.5 C 90.2216,47.9175 90.7216,48.5842 91,49.5C 99.957,48.6473 108.79,47.9806 117.5,47.5C 117.5,48.5 117.5,49.5 117.5,50.5C 108.18,51.1954 98.847,51.862 89.5,52.5C 89.5,50.8333 89.5,49.1667 89.5,47.5 Z"/></g>
<g><path style="opacity:1" fill="#235884" d="M 117.5,50.5 C 116.993,54.0835 115.993,57.4168 114.5,60.5C 114.261,58.5328 114.594,56.6995 115.5,55C 115,54.5 114.5,54 114,53.5C 106.814,53.8919 98.9806,54.0585 90.5,54C 89.944,54.3826 89.6107,54.8826 89.5,55.5C 88.2367,57.8075 86.2367,59.1408 83.5,59.5C 86.1897,57.8065 88.1897,55.4732 89.5,52.5C 98.847,51.862 108.18,51.1954 117.5,50.5 Z"/></g>
<g><path style="opacity:1" fill="#265e89" d="M 61.5,50.5 C 58.584,50.8933 55.9174,51.8933 53.5,53.5C 51.4659,53.2279 49.4659,52.8946 47.5,52.5C 42.8633,53.2199 38.1966,53.7199 33.5,54C 32.9558,54.7172 32.2891,55.2172 31.5,55.5C 31.5569,54.391 31.8902,53.391 32.5,52.5C 34.7742,51.403 36.9409,50.0696 39,48.5C 40.3333,49.1667 41.6667,49.8333 43,50.5C 46.61,48.2083 50.2767,48.2083 54,50.5C 56.7164,49.896 59.2164,49.896 61.5,50.5 Z"/></g>
<g><path style="opacity:1" fill="#15538f" d="M 114.5,60.5 C 114.068,61.7095 113.401,62.7095 112.5,63.5C 112.714,61.8561 112.38,60.3561 111.5,59C 105.472,58.8303 99.4725,58.3303 93.5,57.5C 92.6798,55.8888 91.3464,55.2222 89.5,55.5C 89.6107,54.8826 89.944,54.3826 90.5,54C 98.9806,54.0585 106.814,53.8919 114,53.5C 114.5,54 115,54.5 115.5,55C 114.594,56.6995 114.261,58.5328 114.5,60.5 Z"/></g>
<g><path style="opacity:1" fill="#145390" d="M 61.5,50.5 C 61.5,51.5 61.5,52.5 61.5,53.5C 60.3503,56.2982 59.017,58.9648 57.5,61.5C 56.207,60.158 55.3736,58.4913 55,56.5C 54.1667,57.5 53.3333,58.5 52.5,59.5C 46.1196,58.8089 40.1196,58.4756 34.5,58.5C 32.6998,58.9024 31.0332,59.5691 29.5,60.5C 29.7959,58.597 30.4625,56.9303 31.5,55.5C 32.2891,55.2172 32.9558,54.7172 33.5,54C 38.1966,53.7199 42.8633,53.2199 47.5,52.5C 49.4659,52.8946 51.4659,53.2279 53.5,53.5C 55.9174,51.8933 58.584,50.8933 61.5,50.5 Z"/></g>
<g><path style="opacity:1" fill="#024b90" d="M 89.5,55.5 C 91.3464,55.2222 92.6798,55.8888 93.5,57.5C 99.4725,58.3303 105.472,58.8303 111.5,59C 112.38,60.3561 112.714,61.8561 112.5,63.5C 112.167,64.1667 111.833,64.8333 111.5,65.5C 110.07,65.4208 108.736,65.7542 107.5,66.5C 104.086,70.7481 99.7531,73.5814 94.5,75C 91.975,75.8959 89.8083,75.3959 88,73.5C 85.169,73.9583 82.8357,75.2916 81,77.5C 81.0312,74.7994 82.5312,73.2994 85.5,73C 83.1009,72.289 80.7676,72.4557 78.5,73.5C 77.6143,72.675 77.281,71.675 77.5,70.5C 73.1074,70.4568 72.7741,70.9568 76.5,72C 74.8876,72.7203 73.3876,72.5536 72,71.5C 69.544,73.3213 66.7107,73.988 63.5,73.5C 63.9111,70.7237 63.0777,70.057 61,71.5C 60.8939,70.2061 59.8939,69.5394 58,69.5C 54.896,69.8507 55.0626,70.3507 58.5,71C 57.552,71.4828 56.552,71.6495 55.5,71.5C 55.5,72.8333 55.5,74.1667 55.5,75.5C 46.5952,73.9092 37.5952,72.9092 28.5,72.5C 28.8333,68.5 29.1667,64.5 29.5,60.5C 31.0332,59.5691 32.6998,58.9024 34.5,58.5C 40.1196,58.4756 46.1196,58.8089 52.5,59.5C 53.3333,58.5 54.1667,57.5 55,56.5C 55.3736,58.4913 56.207,60.158 57.5,61.5C 59.223,62.8001 61.3897,63.4668 64,63.5C 70.7519,63.2498 77.2519,61.9164 83.5,59.5C 86.2367,59.1408 88.2367,57.8075 89.5,55.5 Z"/></g>
<g><path style="opacity:1" fill="#044889" d="M 29.5,60.5 C 29.1667,64.5 28.8333,68.5 28.5,72.5C 37.5952,72.9092 46.5952,73.9092 55.5,75.5C 55.5,74.1667 55.5,72.8333 55.5,71.5C 56.552,71.6495 57.552,71.4828 58.5,71C 55.0626,70.3507 54.896,69.8507 58,69.5C 59.8939,69.5394 60.8939,70.2061 61,71.5C 63.0777,70.057 63.9111,70.7237 63.5,73.5C 66.7107,73.988 69.544,73.3213 72,71.5C 73.3876,72.5536 74.8876,72.7203 76.5,72C 72.7741,70.9568 73.1074,70.4568 77.5,70.5C 77.281,71.675 77.6143,72.675 78.5,73.5C 80.7676,72.4557 83.1009,72.289 85.5,73C 82.5312,73.2994 81.0312,74.7994 81,77.5C 82.8357,75.2916 85.169,73.9583 88,73.5C 89.8083,75.3959 91.975,75.8959 94.5,75C 99.7531,73.5814 104.086,70.7481 107.5,66.5C 108.736,65.7542 110.07,65.4208 111.5,65.5C 101.242,75.2091 88.9083,80.3758 74.5,81C 67.8417,81.4996 61.175,81.6663 54.5,81.5C 53.8826,81.6107 53.3826,81.944 53,82.5C 52.5045,84.4727 52.3379,86.4727 52.5,88.5C 51.5,88.5 50.5,88.5 49.5,88.5C 49.8134,91.2469 49.48,93.9135 48.5,96.5C 45.7012,94.1816 43.0345,94.5149 40.5,97.5C 38.8333,96.8333 37.1667,96.1667 35.5,95.5C 34.5581,95.6082 33.7247,95.9415 33,96.5C 31.9609,95.2899 30.7942,94.2899 29.5,93.5C 31.0329,91.2104 30.6996,90.5437 28.5,91.5C 26.7472,85.3063 26.0806,78.973 26.5,72.5C 26.5841,68.1629 27.5841,64.1629 29.5,60.5 Z"/></g>
<g><path style="opacity:1" fill="#03427e" d="M 54.5,81.5 C 53.1664,88.6559 55.4997,94.1559 61.5,98C 73.07,100.45 84.4034,99.6164 95.5,95.5C 97.1667,95.5 98.8333,95.5 100.5,95.5C 100.666,100.511 100.499,105.511 100,110.5C 99.6667,108.167 99.3333,105.833 99,103.5C 97.117,104.653 96.2837,106.319 96.5,108.5C 94.1667,108.5 91.8333,108.5 89.5,108.5C 89.5391,110.359 88.7058,111.692 87,112.5C 79.5771,110.403 79.7438,109.236 87.5,109C 84.1667,108.667 80.8333,108.333 77.5,108C 79.5466,105.234 81.88,104.901 84.5,107C 87.1667,107.667 89.8333,107.667 92.5,107C 89.7932,105.872 87.2932,104.372 85,102.5C 78.8123,104.954 71.979,105.954 64.5,105.5C 64.5,106.5 64.5,107.5 64.5,108.5C 57.6415,106.533 50.6415,104.867 43.5,103.5C 42.0499,104.85 41.3832,106.516 41.5,108.5C 37.3303,109.007 34.3303,107.341 32.5,103.5C 31.2875,100.907 29.9542,98.4068 28.5,96C 28.528,94.9302 28.8614,94.0968 29.5,93.5C 30.7942,94.2899 31.9609,95.2899 33,96.5C 33.7247,95.9415 34.5581,95.6082 35.5,95.5C 37.1667,96.1667 38.8333,96.8333 40.5,97.5C 43.0345,94.5149 45.7012,94.1816 48.5,96.5C 49.48,93.9135 49.8134,91.2469 49.5,88.5C 50.5,88.5 51.5,88.5 52.5,88.5C 52.3379,86.4727 52.5045,84.4727 53,82.5C 53.3826,81.944 53.8826,81.6107 54.5,81.5 Z"/></g>
<g><path style="opacity:1" fill="#043f75" d="M 26.5,72.5 C 26.0806,78.973 26.7472,85.3063 28.5,91.5C 30.6996,90.5437 31.0329,91.2104 29.5,93.5C 28.8614,94.0968 28.528,94.9302 28.5,96C 29.9542,98.4068 31.2875,100.907 32.5,103.5C 34.3303,107.341 37.3303,109.007 41.5,108.5C 41.3832,106.516 42.0499,104.85 43.5,103.5C 50.6415,104.867 57.6415,106.533 64.5,108.5C 64.5,107.5 64.5,106.5 64.5,105.5C 71.979,105.954 78.8123,104.954 85,102.5C 87.2932,104.372 89.7932,105.872 92.5,107C 89.8333,107.667 87.1667,107.667 84.5,107C 81.88,104.901 79.5466,105.234 77.5,108C 80.8333,108.333 84.1667,108.667 87.5,109C 79.7438,109.236 79.5771,110.403 87,112.5C 88.7058,111.692 89.5391,110.359 89.5,108.5C 91.8333,108.5 94.1667,108.5 96.5,108.5C 96.2837,106.319 97.117,104.653 99,103.5C 99.3333,105.833 99.6667,108.167 100,110.5C 100.499,105.511 100.666,100.511 100.5,95.5C 98.8333,95.5 97.1667,95.5 95.5,95.5C 97.7258,93.4753 100.059,93.3086 102.5,95C 102.149,101.536 101.149,107.869 99.5,114C 83.1987,119.654 66.5321,120.988 49.5,118C 36.7915,113.959 28.9581,105.459 26,92.5C 25.1794,85.6536 25.346,78.987 26.5,72.5 Z"/></g>
</svg>
